<svg id="Layer_1" data-name="Layer 1" xmlns="http://www.w3.org/2000/svg" xmlns:xlink="http://www.w3.org/1999/xlink" viewBox="0 0 138.94 94.51"><defs><style>.cls-1{fill:none;}.cls-2{fill:#00427e;}.cls-3{fill:#9ddcf9;opacity:0.4;}.cls-4{stroke:#333;fill:url(#Jive);}.cls-4,.cls-5{stroke-miterlimit:10;}.cls-5{stroke:#1a1a1a;stroke-width:0.5px;fill:url(#Jive-3);}</style><pattern id="Jive" data-name="Jive" x="-150.96" y="-63.69" width="164.22" height="168.54" patternUnits="userSpaceOnUse" viewBox="0 0 164.22 168.54"><rect class="cls-1" width="164.22" height="168.54"/><path class="cls-2" d="M26.7,93.59a.24.24,0,0,1,.24-.2c12.91-.14,24.76-3.27,34-11.52-8,5.56-22.94,7.51-31.52,3.62a.25.25,0,0,1-.14-.29A.23.23,0,0,1,29.5,85c10.68.29,19.28-3,26-9-6.87-.42-12.57-4.74-12.55-9.84a.25.25,0,0,1,.2-.25.24.24,0,0,1,.28.14C44.53,68.58,48.16,69.87,52,69c4.18-1,7-4.19,6.31-7.16-.48-2-2.44-3.41-5-3.79a.25.25,0,0,1,0-.5,17.43,17.43,0,0,1,3.31,0c6.49.62,11.52,4.6,12,9.18,4.72-.55,8.89-3.16,10.38-6.78a.27.27,0,0,1,.28-.15.26.26,0,0,1,.21.23c.38,4.75-1.26,7.84-5,10.85a21.87,21.87,0,0,1,17.26.54.27.27,0,0,1,.14.28.27.27,0,0,1-.24.21A16.22,16.22,0,0,0,80,77c18.25-5.14,33.08,6.2,28,23a.25.25,0,0,1-.27.18.25.25,0,0,1-.22-.23c-.92-9.71-7.71-16.12-17.86-17.08A17.46,17.46,0,0,1,101.1,98.41a.25.25,0,0,1-.48.12,16.75,16.75,0,0,0-14.16-9.81c6.33,2.58,10.39,8.6,11.57,16.42a.26.26,0,0,1-.18.28.26.26,0,0,1-.3-.13C93.69,97.71,85.39,92.5,75.1,96.48c-10.61,4.11-15.27,16.39-16.3,25a.26.26,0,0,1-.24.22.25.25,0,0,1-.26-.19c-3.72-15.69,3.58-31.95,16.64-38.84-7.1,2-13.44,6.26-17,13.35-8.29,1-14,3.86-16.86,9.24a.25.25,0,0,1-.29.13.26.26,0,0,1-.18-.27c.18-2.11.94-6.33,4.07-8.27-7,0-12.51-.89-17.8-3A.26.26,0,0,1,26.7,93.59Zm29.48,53.47a.26.26,0,0,0-.31,0,.25.25,0,0,0,0,.31c1.62,2.8.14,6.82-3,6.82-5.72,0-8.47-10.77-7.6-20.6,2.17,5.76,4,8.06,7.35,10.8a.24.24,0,0,0,.32,0,.25.25,0,0,0,.07-.32A46.5,46.5,0,0,1,47,120c1.46,6,3.2,9.32,8.13,14.38a.24.24,0,0,0,.32,0,.25.25,0,0,0,.09-.31,44.29,44.29,0,0,1-.95-34.27.25.25,0,0,0-.34-.32c-5.21,2.55-8.27,4.23-12.76,10.39,1.36,7.4.23,11-3.17,17.19,3.94-9.91,1.84-23.89-8.19-29.59a.25.25,0,0,0-.32.07.25.25,0,0,0,0,.33A17.89,17.89,0,0,1,34,115.85c1.53-10.39-7.59-19.12-17.78-19.12C6.61,96.73.06,104.24.6,111.67s5.45,11,9.67,12.5a.25.25,0,0,0,.3-.1.26.26,0,0,0,0-.32c-5.61-5.69-6.38-16.49,3.58-19.76-5.86,5.06-3.69,16.83,5.69,17.73a.26.26,0,0,0,.27-.17.26.26,0,0,0-.11-.3,8,8,0,0,1-3.67-6.57c0-4.68,3.42-6.51,5.67-6.51,3.42,0,6.26,3.25,6.26,8.18,0,5.84-5.26,10.68-12,11.43S3.43,125.63.46,121.32a.25.25,0,0,0-.31-.09.27.27,0,0,0-.14.3A17.15,17.15,0,0,0,26.9,131c-6.62,7.5-17,7.6-25.73-.09a.26.26,0,0,0-.32,0,.25.25,0,0,0-.07.31c2.67,5.41,9.25,11.82,18.6,10.89,8.56-.86,13.53-9,14.53-15.69.55,8.52-1.4,14.53-8.76,20.14a.28.28,0,0,0-.07.32.26.26,0,0,0,.3.13c6.78-2,12.23-5.43,15.05-12.55,0,6.16-2.14,12.38-7.53,16.51a.25.25,0,0,0-.07.32.26.26,0,0,0,.3.13c3.45-1,6.17-2.49,8.13-5.19,1.31,11.1,6.52,17.7,12.53,17.7,4.12,0,7.2-3,7.2-7.88A11.35,11.35,0,0,0,56.18,147.06Zm99.23-91.61c-3.16-3.91-9.54-5.4-16.43-4A22.82,22.82,0,0,0,137.37,40a.27.27,0,0,0-.29-.14.27.27,0,0,0-.2.26c.38,8.77-4.62,15.85-13.45,18.91,6.91-4.75,8.93-14.19,5.64-19.06a.25.25,0,0,0-.46.18c.37,2.06-.6,4.69-2.71,6.73-2.91,2.81-6.85,3.45-8.81,1.43s-1.2-6,1.71-8.76a9.72,9.72,0,0,1,3.44-2.19.24.24,0,0,0,.17-.27.25.25,0,0,0-.23-.22c-6.39-.55-10.77,3.25-13.51,7.88s-7.57,8.41-13.21,7.67a.25.25,0,0,0-.28.17.26.26,0,0,0,.11.3,11.05,11.05,0,0,0,9.86,1c-5.79,4.91-14,7.74-21.84,5.23a.25.25,0,0,0-.29.1.26.26,0,0,0,0,.31c5.91,6.56,17.69,6.69,25.11,1.37-3,4.32-7.07,7.49-14.29,8.48a.25.25,0,0,0-.22.22.24.24,0,0,0,.16.27c8.29,3.08,16.6,0,23.45-8.22a26.39,26.39,0,0,1-14.77,14,.24.24,0,0,0-.16.28.25.25,0,0,0,.24.21c3.94.08,7.49-.86,12.27-3.57-3.51,5.69-2.74,15.64,2.37,22.26a.24.24,0,0,0,.3.07.25.25,0,0,0,.15-.27c-1.18-7.2,1.3-15.33,5.61-19.64a18.16,18.16,0,0,0,5.89,19.64.27.27,0,0,0,.26,0,.26.26,0,0,0,.16-.21c1.23-9.42,11.77-19,20.6-19.77a.25.25,0,0,0,.23-.24.24.24,0,0,0-.2-.26,20.8,20.8,0,0,0-12.38,1A21.81,21.81,0,0,1,147.38,69a.25.25,0,0,0,.18-.27.27.27,0,0,0-.24-.22,20.44,20.44,0,0,0-12.73,3.53A31.43,31.43,0,0,1,154,58.56a.27.27,0,0,0,.2-.26.26.26,0,0,0-.23-.24c-11.92-1.3-21.75,3.32-28.22,11.92,1.65-4.9,6.36-9.76,12.94-12.62,5.85-2.55,11.85-3,16.43-1.51a.25.25,0,0,0,.27-.4ZM102.51,131c4.8-10.49,4.46-18.69.59-29.06a.28.28,0,0,0-.29-.16.26.26,0,0,0-.2.26c.62,12.63-2.83,21.66-10.3,27.81,8.25-9.85,4.35-29.56-8.82-29.56-9.59,0-17.52,8-19.46,17.53a.25.25,0,0,0,.16.28.26.26,0,0,0,.31-.1c2.84-4.76,7.41-7.85,12.46-7.85,8.13,0,10.54,6.46,10.54,11,0,6.19-4.93,11.35-8.71,11.35a4.94,4.94,0,0,1-5-4.93,8.86,8.86,0,0,1,6.38-8.16.26.26,0,0,0,.17-.28.24.24,0,0,0-.25-.22,10.47,10.47,0,0,0-9.63,5.57,17.45,17.45,0,0,1,.64-7.73.23.23,0,0,0-.12-.29.26.26,0,0,0-.32.06c-7.35,9.4-3.83,25.63,2,32.36-5.53-4-10.42-12.63-10.34-24.39a.25.25,0,0,0-.2-.25.26.26,0,0,0-.29.15c-4.11,10.25-1.93,29.25,9.28,39.85a20,20,0,0,1-9.12-.69.26.26,0,0,0-.3.12.25.25,0,0,0,.06.32c4.09,3.45,9.81,4.54,15.27,4.54C72.26,163,73.82,152,81.31,152c5.35,0,7.78,8.3,3.65,12.79a.26.26,0,0,0,0,.31.27.27,0,0,0,.3.1c4.78-1.66,9.94-5.79,9.94-11,0-5-4.81-9.39-11.8-9,8.82-2.5,18,.27,22.88,6.25a.26.26,0,0,0,.45-.22c-2.79-10.72-12-15.2-23.44-13.71,9.28-3.75,23.25-.48,29.42,7.31a.25.25,0,0,0,.31.08.27.27,0,0,0,.14-.28C111.76,137.92,108.27,133,102.51,131Z"/><path class="cls-3" d="M137.53,74.94a.26.26,0,0,1-.25.21c-12.91.14-24.75,3.27-34,11.52,8-5.56,22.94-7.51,31.53-3.62a.25.25,0,0,1,.14.29.26.26,0,0,1-.26.19c-10.68-.29-19.28,3-26,9,6.87.42,12.57,4.74,12.56,9.84a.27.27,0,0,1-.21.25.27.27,0,0,1-.28-.14c-1.12-2.49-4.75-3.79-8.58-2.89-4.18,1-7,4.19-6.3,7.17.47,2,2.43,3.4,4.95,3.79a.25.25,0,0,1,0,.5,17.53,17.53,0,0,1-3.32,0c-6.49-.62-11.51-4.6-12-9.18-4.71.55-8.88,3.16-10.38,6.77a.25.25,0,0,1-.27.16.26.26,0,0,1-.22-.23c-.37-4.75,1.26-7.84,5-10.86a21.8,21.8,0,0,1-17.25-.53.26.26,0,0,1-.15-.28.28.28,0,0,1,.25-.21,16.26,16.26,0,0,0,11.73-5.07c-18.26,5.13-33.09-6.2-28-23a.26.26,0,0,1,.27-.18.26.26,0,0,1,.23.23c.91,9.71,7.7,16.12,17.86,17.07A17.44,17.44,0,0,1,63.12,70.13a.25.25,0,0,1,.19-.26.27.27,0,0,1,.3.14,16.74,16.74,0,0,0,14.16,9.81c-6.34-2.58-10.4-8.6-11.57-16.42a.25.25,0,0,1,.17-.28.25.25,0,0,1,.3.13C70.54,70.83,78.83,76,89.12,72.06c10.62-4.11,15.27-16.39,16.3-25a.26.26,0,0,1,.24-.22.25.25,0,0,1,.26.19c3.72,15.69-3.58,31.95-16.63,38.84,7.09-2,13.44-6.26,17-13.35,8.3-1,14-3.87,16.86-9.24a.26.26,0,0,1,.3-.13.27.27,0,0,1,.18.27c-.18,2.11-.94,6.33-4.08,8.27,7,0,12.51.89,17.8,3A.26.26,0,0,1,137.53,74.94ZM108,21.47a.25.25,0,0,0,.36-.33c-1.62-2.8-.14-6.82,3-6.82,5.72,0,8.47,10.77,7.6,20.59-2.16-5.75-4-8-7.35-10.79a.24.24,0,0,0-.32,0,.25.25,0,0,0-.06.32,46.56,46.56,0,0,1,5.89,24.08c-1.46-6-3.19-9.32-8.12-14.38a.26.26,0,0,0-.33,0,.25.25,0,0,0-.09.31,44.24,44.24,0,0,1,1,34.27.27.27,0,0,0,.06.28.28.28,0,0,0,.29,0c5.2-2.55,8.26-4.23,12.75-10.39-1.36-7.4-.23-11,3.17-17.19C122,51.34,124.05,65.32,134.08,71a.25.25,0,0,0,.32-.07.25.25,0,0,0,0-.33,17.93,17.93,0,0,1-4.16-17.93c-1.53,10.39,7.6,19.12,17.78,19.12,9.6,0,16.15-7.51,15.61-14.94s-5.44-11-9.67-12.5a.25.25,0,0,0-.3.1.27.27,0,0,0,0,.32c5.61,5.69,6.38,16.49-3.58,19.76,5.86-5.06,3.69-16.83-5.69-17.73a.24.24,0,0,0-.26.17.26.26,0,0,0,.1.3,8,8,0,0,1,3.68,6.57c0,4.68-3.42,6.51-5.68,6.51-3.42,0-6.26-3.25-6.26-8.18,0-5.84,5.26-10.68,12-11.43s12.78,2.15,15.75,6.46a.26.26,0,0,0,.32.08.25.25,0,0,0,.14-.29,17.15,17.15,0,0,0-26.89-9.51c6.61-7.5,17-7.6,25.72.09a.26.26,0,0,0,.32,0,.24.24,0,0,0,.07-.31c-2.66-5.41-9.25-11.82-18.6-10.89-8.56.86-13.52,9-14.52,15.69-.56-8.52,1.39-14.53,8.75-20.14a.25.25,0,0,0,.07-.32.26.26,0,0,0-.3-.13c-6.78,2-12.23,5.43-15,12.55,0-6.16,2.13-12.38,7.52-16.51a.25.25,0,0,0,.07-.32.24.24,0,0,0-.29-.13c-3.45,1-6.17,2.49-8.14,5.18-1.31-11.1-6.52-17.69-12.53-17.69-4.12,0-7.2,3-7.2,7.87A11.36,11.36,0,0,0,108,21.47ZM8.81,113.09c3.16,3.91,9.54,5.39,16.43,4a22.7,22.7,0,0,0,1.62,11.49.25.25,0,0,0,.48-.12C27,119.68,32,112.6,40.79,109.54c-6.91,4.75-8.93,14.19-5.64,19.06a.25.25,0,0,0,.46-.19c-.37-2.06.61-4.68,2.71-6.72,2.91-2.81,6.85-3.45,8.81-1.43s1.2,5.95-1.7,8.76A9.75,9.75,0,0,1,42,131.21a.26.26,0,0,0-.17.27.26.26,0,0,0,.23.22c6.39.55,10.77-3.25,13.52-7.88s7.57-8.41,13.21-7.67A.26.26,0,0,0,69,116a.24.24,0,0,0-.11-.3,11.05,11.05,0,0,0-9.86-1.05c5.79-4.91,14.05-7.74,21.84-5.23a.25.25,0,0,0,.29-.1.26.26,0,0,0,0-.31c-5.9-6.57-17.69-6.7-25.11-1.37,3-4.32,7.07-7.49,14.3-8.48a.28.28,0,0,0,.22-.23.26.26,0,0,0-.17-.26c-8.29-3.08-16.6,0-23.44,8.22a26.34,26.34,0,0,1,14.76-14,.25.25,0,0,0,.17-.28.26.26,0,0,0-.25-.21c-3.94-.08-7.48.86-12.26,3.57,3.5-5.69,2.74-15.64-2.37-22.26a.28.28,0,0,0-.31-.08.26.26,0,0,0-.14.28c1.18,7.2-1.3,15.33-5.61,19.64a18.18,18.18,0,0,0-5.9-19.64.27.27,0,0,0-.26-.05.29.29,0,0,0-.16.21C33.41,83.44,22.87,93,14,93.8a.26.26,0,0,0-.23.24.25.25,0,0,0,.2.26,20.83,20.83,0,0,0,12.39-1,21.87,21.87,0,0,1-9.56,6.25.24.24,0,0,0-.17.27.25.25,0,0,0,.23.22,20.39,20.39,0,0,0,12.73-3.54A31.44,31.44,0,0,1,10.2,110a.25.25,0,0,0-.19.26.24.24,0,0,0,.22.24c11.92,1.3,21.75-3.32,28.22-11.92-1.65,4.9-6.36,9.76-12.94,12.62-5.85,2.54-11.85,2.95-16.42,1.51a.27.27,0,0,0-.29.1A.25.25,0,0,0,8.81,113.09ZM61.72,37.52c-4.81,10.49-4.47,18.69-.6,29a.26.26,0,0,0,.5-.1C61,53.85,64.44,44.82,71.91,38.67c-8.25,9.85-4.35,29.56,8.83,29.56,9.58,0,17.51-8,19.45-17.53a.25.25,0,0,0-.16-.29.24.24,0,0,0-.3.11c-2.85,4.76-7.41,7.85-12.46,7.85-8.14,0-10.54-6.46-10.54-11,0-6.18,4.92-11.34,8.7-11.34a4.94,4.94,0,0,1,5,4.93,8.87,8.87,0,0,1-6.38,8.16.26.26,0,0,0-.18.28.25.25,0,0,0,.25.22,10.46,10.46,0,0,0,9.63-5.57,17.45,17.45,0,0,1-.64,7.73.24.24,0,0,0,.12.29A.25.25,0,0,0,93.6,52c7.36-9.39,3.84-25.62-2-32.35C97.15,23.63,102,32.28,102,44a.26.26,0,0,0,.21.25.25.25,0,0,0,.28-.15c4.11-10.26,1.93-29.25-9.28-39.85a20,20,0,0,1,9.12.69.27.27,0,0,0,.3-.12.25.25,0,0,0-.06-.32C98.44,1.09,92.72,0,87.27,0c4.7,5.5,3.14,16.55-4.35,16.55-5.36,0-7.78-8.3-3.65-12.78a.27.27,0,0,0,0-.31.25.25,0,0,0-.3-.1c-4.78,1.66-9.94,5.79-9.94,11,0,5,4.81,9.39,11.8,9-8.82,2.5-18-.27-22.88-6.26a.25.25,0,0,0-.31-.06.24.24,0,0,0-.13.29c2.79,10.71,12,15.2,23.44,13.7-9.29,3.76-23.26.49-29.43-7.3a.25.25,0,0,0-.31-.08.27.27,0,0,0-.14.28C52.46,30.62,56,35.56,61.72,37.52Z"/></pattern><pattern id="Jive-3" data-name="Jive" width="164.22" height="168.54" patternUnits="userSpaceOnUse" viewBox="0 0 164.22 168.54"><rect class="cls-1" width="164.22" height="168.54"/><path class="cls-2" d="M26.7,93.59a.24.24,0,0,1,.24-.2c12.91-.14,24.76-3.27,34-11.52-8,5.56-22.94,7.51-31.52,3.62a.25.25,0,0,1-.14-.29A.23.23,0,0,1,29.5,85c10.68.29,19.28-3,26-9-6.87-.42-12.57-4.74-12.55-9.84a.25.25,0,0,1,.2-.25.24.24,0,0,1,.28.14C44.53,68.58,48.16,69.87,52,69c4.18-1,7-4.19,6.31-7.16-.48-2-2.44-3.41-5-3.79a.25.25,0,0,1,0-.5,17.43,17.43,0,0,1,3.31,0c6.49.62,11.52,4.6,12,9.18,4.72-.55,8.89-3.16,10.38-6.78a.27.27,0,0,1,.28-.15.26.26,0,0,1,.21.23c.38,4.75-1.26,7.84-5,10.85a21.87,21.87,0,0,1,17.26.54.27.27,0,0,1,.14.28.27.27,0,0,1-.24.21A16.22,16.22,0,0,0,80,77c18.25-5.14,33.08,6.2,28,23a.25.25,0,0,1-.27.18.25.25,0,0,1-.22-.23c-.92-9.71-7.71-16.12-17.86-17.08A17.46,17.46,0,0,1,101.1,98.41a.25.25,0,0,1-.48.12,16.75,16.75,0,0,0-14.16-9.81c6.33,2.58,10.39,8.6,11.57,16.42a.26.26,0,0,1-.18.28.26.26,0,0,1-.3-.13C93.69,97.71,85.39,92.5,75.1,96.48c-10.61,4.11-15.27,16.39-16.3,25a.26.26,0,0,1-.24.22.25.25,0,0,1-.26-.19c-3.72-15.69,3.58-31.95,16.64-38.84-7.1,2-13.44,6.26-17,13.35-8.29,1-14,3.86-16.86,9.24a.25.25,0,0,1-.29.13.26.26,0,0,1-.18-.27c.18-2.11.94-6.33,4.07-8.27-7,0-12.51-.89-17.8-3A.26.26,0,0,1,26.7,93.59Zm29.48,53.47a.26.26,0,0,0-.31,0,.25.25,0,0,0,0,.31c1.62,2.8.14,6.82-3,6.82-5.72,0-8.47-10.77-7.6-20.6,2.17,5.76,4,8.06,7.35,10.8a.24.24,0,0,0,.32,0,.25.25,0,0,0,.07-.32A46.5,46.5,0,0,1,47,120c1.46,6,3.2,9.32,8.13,14.38a.24.24,0,0,0,.32,0,.25.25,0,0,0,.09-.31,44.29,44.29,0,0,1-.95-34.27.25.25,0,0,0-.34-.32c-5.21,2.55-8.27,4.23-12.76,10.39,1.36,7.4.23,11-3.17,17.19,3.94-9.91,1.84-23.89-8.19-29.59a.25.25,0,0,0-.32.07.25.25,0,0,0,0,.33A17.89,17.89,0,0,1,34,115.85c1.53-10.39-7.59-19.12-17.78-19.12C6.61,96.73.06,104.24.6,111.67s5.45,11,9.67,12.5a.25.25,0,0,0,.3-.1.26.26,0,0,0,0-.32c-5.61-5.69-6.38-16.49,3.58-19.76-5.86,5.06-3.69,16.83,5.69,17.73a.26.26,0,0,0,.27-.17.26.26,0,0,0-.11-.3,8,8,0,0,1-3.67-6.57c0-4.68,3.42-6.51,5.67-6.51,3.42,0,6.26,3.25,6.26,8.18,0,5.84-5.26,10.68-12,11.43S3.43,125.63.46,121.32a.25.25,0,0,0-.31-.09.27.27,0,0,0-.14.3A17.15,17.15,0,0,0,26.9,131c-6.62,7.5-17,7.6-25.73-.09a.26.26,0,0,0-.32,0,.25.25,0,0,0-.07.31c2.67,5.41,9.25,11.82,18.6,10.89,8.56-.86,13.53-9,14.53-15.69.55,8.52-1.4,14.53-8.76,20.14a.28.28,0,0,0-.07.32.26.26,0,0,0,.3.13c6.78-2,12.23-5.43,15.05-12.55,0,6.16-2.14,12.38-7.53,16.51a.25.25,0,0,0-.07.32.26.26,0,0,0,.3.13c3.45-1,6.17-2.49,8.13-5.19,1.31,11.1,6.52,17.7,12.53,17.7,4.12,0,7.2-3,7.2-7.88A11.35,11.35,0,0,0,56.18,147.06Zm99.23-91.61c-3.16-3.91-9.54-5.4-16.43-4A22.82,22.82,0,0,0,137.37,40a.27.27,0,0,0-.29-.14.27.27,0,0,0-.2.26c.38,8.77-4.62,15.85-13.45,18.91,6.91-4.75,8.93-14.19,5.64-19.06a.25.25,0,0,0-.46.18c.37,2.06-.6,4.69-2.71,6.73-2.91,2.81-6.85,3.45-8.81,1.43s-1.2-6,1.71-8.76a9.72,9.72,0,0,1,3.44-2.19.24.24,0,0,0,.17-.27.25.25,0,0,0-.23-.22c-6.39-.55-10.77,3.25-13.51,7.88s-7.57,8.41-13.21,7.67a.25.25,0,0,0-.28.17.26.26,0,0,0,.11.3,11.05,11.05,0,0,0,9.86,1c-5.79,4.91-14,7.74-21.84,5.23a.25.25,0,0,0-.29.1.26.26,0,0,0,0,.31c5.91,6.56,17.69,6.69,25.11,1.37-3,4.32-7.07,7.49-14.29,8.48a.25.25,0,0,0-.22.22.24.24,0,0,0,.16.27c8.29,3.08,16.6,0,23.45-8.22a26.39,26.39,0,0,1-14.77,14,.24.24,0,0,0-.16.28.25.25,0,0,0,.24.21c3.94.08,7.49-.86,12.27-3.57-3.51,5.69-2.74,15.64,2.37,22.26a.24.24,0,0,0,.3.07.25.25,0,0,0,.15-.27c-1.18-7.2,1.3-15.33,5.61-19.64a18.16,18.16,0,0,0,5.89,19.64.27.27,0,0,0,.26,0,.26.26,0,0,0,.16-.21c1.23-9.42,11.77-19,20.6-19.77a.25.25,0,0,0,.23-.24.24.24,0,0,0-.2-.26,20.8,20.8,0,0,0-12.38,1A21.81,21.81,0,0,1,147.38,69a.25.25,0,0,0,.18-.27.27.27,0,0,0-.24-.22,20.44,20.44,0,0,0-12.73,3.53A31.43,31.43,0,0,1,154,58.56a.27.27,0,0,0,.2-.26.26.26,0,0,0-.23-.24c-11.92-1.3-21.75,3.32-28.22,11.92,1.65-4.9,6.36-9.76,12.94-12.62,5.85-2.55,11.85-3,16.43-1.51a.25.25,0,0,0,.27-.4ZM102.51,131c4.8-10.49,4.46-18.69.59-29.06a.28.28,0,0,0-.29-.16.26.26,0,0,0-.2.26c.62,12.63-2.83,21.66-10.3,27.81,8.25-9.85,4.35-29.56-8.82-29.56-9.59,0-17.52,8-19.46,17.53a.25.25,0,0,0,.16.28.26.26,0,0,0,.31-.1c2.84-4.76,7.41-7.85,12.46-7.85,8.13,0,10.54,6.46,10.54,11,0,6.19-4.93,11.35-8.71,11.35a4.94,4.94,0,0,1-5-4.93,8.86,8.86,0,0,1,6.38-8.16.26.26,0,0,0,.17-.28.24.24,0,0,0-.25-.22,10.47,10.47,0,0,0-9.63,5.57,17.45,17.45,0,0,1,.64-7.73.23.23,0,0,0-.12-.29.26.26,0,0,0-.32.06c-7.35,9.4-3.83,25.63,2,32.36-5.53-4-10.42-12.63-10.34-24.39a.25.25,0,0,0-.2-.25.26.26,0,0,0-.29.15c-4.11,10.25-1.93,29.25,9.28,39.85a20,20,0,0,1-9.12-.69.26.26,0,0,0-.3.12.25.25,0,0,0,.06.32c4.09,3.45,9.81,4.54,15.27,4.54C72.26,163,73.82,152,81.31,152c5.35,0,7.78,8.3,3.65,12.79a.26.26,0,0,0,0,.31.27.27,0,0,0,.3.1c4.78-1.66,9.94-5.79,9.94-11,0-5-4.81-9.39-11.8-9,8.82-2.5,18,.27,22.88,6.25a.26.26,0,0,0,.45-.22c-2.79-10.72-12-15.2-23.44-13.71,9.28-3.75,23.25-.48,29.42,7.31a.25.25,0,0,0,.31.08.27.27,0,0,0,.14-.28C111.76,137.92,108.27,133,102.51,131Z"/><path class="cls-3" d="M137.53,74.94a.26.26,0,0,1-.25.21c-12.91.14-24.75,3.27-34,11.52,8-5.56,22.94-7.51,31.53-3.62a.25.25,0,0,1,.14.29.26.26,0,0,1-.26.19c-10.68-.29-19.28,3-26,9,6.87.42,12.57,4.74,12.56,9.84a.27.27,0,0,1-.21.25.27.27,0,0,1-.28-.14c-1.12-2.49-4.75-3.79-8.58-2.89-4.18,1-7,4.19-6.3,7.17.47,2,2.43,3.4,4.95,3.79a.25.25,0,0,1,0,.5,17.53,17.53,0,0,1-3.32,0c-6.49-.62-11.51-4.6-12-9.18-4.71.55-8.88,3.16-10.38,6.77a.25.25,0,0,1-.27.16.26.26,0,0,1-.22-.23c-.37-4.75,1.26-7.84,5-10.86a21.8,21.8,0,0,1-17.25-.53.26.26,0,0,1-.15-.28.28.28,0,0,1,.25-.21,16.26,16.26,0,0,0,11.73-5.07c-18.26,5.13-33.09-6.2-28-23a.26.26,0,0,1,.27-.18.26.26,0,0,1,.23.23c.91,9.71,7.7,16.12,17.86,17.07A17.44,17.44,0,0,1,63.12,70.13a.25.25,0,0,1,.19-.26.27.27,0,0,1,.3.14,16.74,16.74,0,0,0,14.16,9.81c-6.34-2.58-10.4-8.6-11.57-16.42a.25.25,0,0,1,.17-.28.25.25,0,0,1,.3.13C70.54,70.83,78.83,76,89.12,72.06c10.62-4.11,15.27-16.39,16.3-25a.26.26,0,0,1,.24-.22.25.25,0,0,1,.26.19c3.72,15.69-3.58,31.95-16.63,38.84,7.09-2,13.44-6.26,17-13.35,8.3-1,14-3.87,16.86-9.24a.26.26,0,0,1,.3-.13.27.27,0,0,1,.18.27c-.18,2.11-.94,6.33-4.08,8.27,7,0,12.51.89,17.8,3A.26.26,0,0,1,137.53,74.94ZM108,21.47a.25.25,0,0,0,.36-.33c-1.62-2.8-.14-6.82,3-6.82,5.72,0,8.47,10.77,7.6,20.59-2.16-5.75-4-8-7.35-10.79a.24.24,0,0,0-.32,0,.25.25,0,0,0-.06.32,46.56,46.56,0,0,1,5.89,24.08c-1.46-6-3.19-9.32-8.12-14.38a.26.26,0,0,0-.33,0,.25.25,0,0,0-.09.31,44.24,44.24,0,0,1,1,34.27.27.27,0,0,0,.06.28.28.28,0,0,0,.29,0c5.2-2.55,8.26-4.23,12.75-10.39-1.36-7.4-.23-11,3.17-17.19C122,51.34,124.05,65.32,134.08,71a.25.25,0,0,0,.32-.07.25.25,0,0,0,0-.33,17.93,17.93,0,0,1-4.16-17.93c-1.53,10.39,7.6,19.12,17.78,19.12,9.6,0,16.15-7.51,15.61-14.94s-5.44-11-9.67-12.5a.25.25,0,0,0-.3.1.27.27,0,0,0,0,.32c5.61,5.69,6.38,16.49-3.58,19.76,5.86-5.06,3.69-16.83-5.69-17.73a.24.24,0,0,0-.26.17.26.26,0,0,0,.1.3,8,8,0,0,1,3.68,6.57c0,4.68-3.42,6.51-5.68,6.51-3.42,0-6.26-3.25-6.26-8.18,0-5.84,5.26-10.68,12-11.43s12.78,2.15,15.75,6.46a.26.26,0,0,0,.32.08.25.25,0,0,0,.14-.29,17.15,17.15,0,0,0-26.89-9.51c6.61-7.5,17-7.6,25.72.09a.26.26,0,0,0,.32,0,.24.24,0,0,0,.07-.31c-2.66-5.41-9.25-11.82-18.6-10.89-8.56.86-13.52,9-14.52,15.69-.56-8.52,1.39-14.53,8.75-20.14a.25.25,0,0,0,.07-.32.26.26,0,0,0-.3-.13c-6.78,2-12.23,5.43-15,12.55,0-6.16,2.13-12.38,7.52-16.51a.25.25,0,0,0,.07-.32.24.24,0,0,0-.29-.13c-3.45,1-6.17,2.49-8.14,5.18-1.31-11.1-6.52-17.69-12.53-17.69-4.12,0-7.2,3-7.2,7.87A11.36,11.36,0,0,0,108,21.47ZM8.81,113.09c3.16,3.91,9.54,5.39,16.43,4a22.7,22.7,0,0,0,1.62,11.49.25.25,0,0,0,.48-.12C27,119.68,32,112.6,40.79,109.54c-6.91,4.75-8.93,14.19-5.64,19.06a.25.25,0,0,0,.46-.19c-.37-2.06.61-4.68,2.71-6.72,2.91-2.81,6.85-3.45,8.81-1.43s1.2,5.95-1.7,8.76A9.75,9.75,0,0,1,42,131.21a.26.26,0,0,0-.17.27.26.26,0,0,0,.23.22c6.39.55,10.77-3.25,13.52-7.88s7.57-8.41,13.21-7.67A.26.26,0,0,0,69,116a.24.24,0,0,0-.11-.3,11.05,11.05,0,0,0-9.86-1.05c5.79-4.91,14.05-7.74,21.84-5.23a.25.25,0,0,0,.29-.1.26.26,0,0,0,0-.31c-5.9-6.57-17.69-6.7-25.11-1.37,3-4.32,7.07-7.49,14.3-8.48a.28.28,0,0,0,.22-.23.26.26,0,0,0-.17-.26c-8.29-3.08-16.6,0-23.44,8.22a26.34,26.34,0,0,1,14.76-14,.25.25,0,0,0,.17-.28.26.26,0,0,0-.25-.21c-3.94-.08-7.48.86-12.26,3.57,3.5-5.69,2.74-15.64-2.37-22.26a.28.28,0,0,0-.31-.08.26.26,0,0,0-.14.28c1.18,7.2-1.3,15.33-5.61,19.64a18.18,18.18,0,0,0-5.9-19.64.27.27,0,0,0-.26-.05.29.29,0,0,0-.16.21C33.41,83.44,22.87,93,14,93.8a.26.26,0,0,0-.23.24.25.25,0,0,0,.2.26,20.83,20.83,0,0,0,12.39-1,21.87,21.87,0,0,1-9.56,6.25.24.24,0,0,0-.17.27.25.25,0,0,0,.23.22,20.39,20.39,0,0,0,12.73-3.54A31.44,31.44,0,0,1,10.2,110a.25.25,0,0,0-.19.26.24.24,0,0,0,.22.24c11.92,1.3,21.75-3.32,28.22-11.92-1.65,4.9-6.36,9.76-12.94,12.62-5.85,2.54-11.85,2.95-16.42,1.51a.27.27,0,0,0-.29.1A.25.25,0,0,0,8.81,113.09ZM61.72,37.52c-4.81,10.49-4.47,18.69-.6,29a.26.26,0,0,0,.5-.1C61,53.85,64.44,44.82,71.91,38.67c-8.25,9.85-4.35,29.56,8.83,29.56,9.58,0,17.51-8,19.45-17.53a.25.25,0,0,0-.16-.29.24.24,0,0,0-.3.11c-2.85,4.76-7.41,7.85-12.46,7.85-8.14,0-10.54-6.46-10.54-11,0-6.18,4.92-11.34,8.7-11.34a4.94,4.94,0,0,1,5,4.93,8.87,8.87,0,0,1-6.38,8.16.26.26,0,0,0-.18.28.25.25,0,0,0,.25.22,10.46,10.46,0,0,0,9.63-5.57,17.45,17.45,0,0,1-.64,7.73.24.24,0,0,0,.12.29A.25.25,0,0,0,93.6,52c7.36-9.39,3.84-25.62-2-32.35C97.15,23.63,102,32.28,102,44a.26.26,0,0,0,.21.25.25.25,0,0,0,.28-.15c4.11-10.26,1.93-29.25-9.28-39.85a20,20,0,0,1,9.12.69.27.27,0,0,0,.3-.12.25.25,0,0,0-.06-.32C98.44,1.09,92.72,0,87.27,0c4.7,5.5,3.14,16.55-4.35,16.55-5.36,0-7.78-8.3-3.65-12.78a.27.27,0,0,0,0-.31.25.25,0,0,0-.3-.1c-4.78,1.66-9.94,5.79-9.94,11,0,5,4.81,9.39,11.8,9-8.82,2.5-18-.27-22.88-6.26a.25.25,0,0,0-.31-.06.24.24,0,0,0-.13.29c2.79,10.71,12,15.2,23.44,13.7-9.29,3.76-23.26.49-29.43-7.3a.25.25,0,0,0-.31-.08.27.27,0,0,0-.14.28C52.46,30.62,56,35.56,61.72,37.52Z"/></pattern></defs><title>shlogoldpi</title><polygon class="cls-4" points="138.23 49.27 93.7 93.8 69.47 69.57 45.24 93.8 0.71 49.27 21.17 28.8 45.73 53.36 69.88 29.21 92.96 52.3 117.36 27.9 138.23 49.27"/><path id="path4557" class="cls-5" d="M199.86,69l.44,1.7,1.45.55L204.06,87l12.75-1.11L229,87.41,235.75,89l3.58,1,3.58-15.59,2-.18.25-1.47-.36-1.36-1.11-.71-1.68,0-.74.8.24,2.26L235,77.44l-2.27-9.21,1.42-.67.24-1.66-3-.2-.62,1.47.62,1.34-5.62,5.92-2.45-5.92,1.32-.3L224.8,67l-1-1.14-1.11-.26-1.2,1.57.94,1.63-5,4.82-3.35-6.56,1.18-1.36-.53-1.36L213.4,64l-1.29,1v1l.8,1.13L208.42,75l-5.68-4.24.19-2.3-.69-.44-1.52.39Z" transform="translate(-150.96 -63.69)"/></svg>